<svg width="36" height="36" viewBox="0 0 36 36" fill="none" xmlns="http://www.w3.org/2000/svg">
<rect x="0.0444336" width="35.1111" height="35.1111" rx="8.77778" fill="white"/>
<path fill-rule="evenodd" clip-rule="evenodd" d="M16.4518 24.5437C16.8944 25.0367 17.4626 25.3075 18.0521 25.3075H18.053C18.6451 25.3075 19.2159 25.0367 19.6593 24.5428C19.8968 24.2805 20.3018 24.2591 20.5641 24.4958C20.8273 24.7325 20.8487 25.1383 20.612 25.4006C19.9216 26.1671 19.0134 26.5892 18.053 26.5892H18.0513C17.0935 26.5883 16.1869 26.1662 15.4991 25.3998C15.2624 25.1375 15.2838 24.7316 15.547 24.4958C15.8101 24.2583 16.2151 24.2796 16.4518 24.5437ZM18.0947 8.21899C21.8926 8.21899 24.4439 11.177 24.4439 13.9394C24.4439 15.3603 24.8053 15.9627 25.189 16.6018C25.5683 17.2323 25.9981 17.9483 25.9981 19.3018C25.6999 22.7596 22.09 23.0416 18.0947 23.0416C14.0994 23.0416 10.4886 22.7596 10.1938 19.3564C10.1912 17.9483 10.621 17.2323 11.0004 16.6018L11.1343 16.3763C11.4641 15.8096 11.7454 15.1931 11.7454 13.9394C11.7454 11.177 14.2968 8.21899 18.0947 8.21899ZM18.0947 9.50063C15.1085 9.50063 13.0271 11.8401 13.0271 13.9394C13.0271 15.7157 12.5341 16.5368 12.0983 17.2614C11.7489 17.8432 11.4729 18.3029 11.4729 19.3018C11.6156 20.9132 12.6793 21.7599 18.0947 21.7599C23.4801 21.7599 24.5772 20.8756 24.719 19.2462C24.7165 18.3029 24.4405 17.8432 24.091 17.2614C23.6553 16.5368 23.1623 15.7157 23.1623 13.9394C23.1623 11.8401 21.0809 9.50063 18.0947 9.50063Z" fill="#42495B"/>
<circle cx="22.1944" cy="10.1944" r="2.19444" fill="#9400D4"/>
</svg>
