<svg width="23" height="23" viewBox="0 0 23 23" fill="none" xmlns="http://www.w3.org/2000/svg">
<path fill-rule="evenodd" clip-rule="evenodd" d="M19.2126 17.4469C19.2126 20.6056 14.8809 20.9707 11.6236 20.9707L11.3905 20.9705C9.31512 20.9655 4.03259 20.8344 4.03259 17.4277C4.03259 14.3335 8.19018 13.92 11.4228 13.9044L11.8566 13.9041C13.9318 13.9092 19.2126 14.0402 19.2126 17.4469ZM11.6236 15.3414C7.54009 15.3414 5.47009 16.0429 5.47009 17.4277C5.47009 18.825 7.54009 19.5332 11.6236 19.5332C15.7061 19.5332 17.7751 18.8317 17.7751 17.4469C17.7751 16.0496 15.7061 15.3414 11.6236 15.3414ZM11.6236 1.92822C14.4296 1.92822 16.7113 4.21097 16.7113 7.01697C16.7113 9.82297 14.4296 12.1048 11.6236 12.1048H11.5929C8.79263 12.0961 6.52426 9.81243 6.53381 7.0141C6.53381 4.21097 8.81659 1.92822 11.6236 1.92822ZM11.6236 3.29672C9.57176 3.29672 7.90232 4.96518 7.90232 7.01697C7.89564 9.06206 9.55259 10.7296 11.5958 10.7372L11.6236 11.4215V10.7372C13.6744 10.7372 15.3428 9.06781 15.3428 7.01697C15.3428 4.96518 13.6744 3.29672 11.6236 3.29672Z" fill="#42495B"/>
</svg>
