<svg width="45" height="45" viewBox="0 0 45 45" fill="none" xmlns="http://www.w3.org/2000/svg">
<mask id="path-1-inside-1_17_292" fill="white">
<path d="M6.8313 34.9296C8.87535 37.5063 11.5233 39.5391 14.5407 40.848C17.558 42.1569 20.8516 42.7015 24.1297 42.4335C27.4078 42.1655 30.5692 41.0931 33.3338 39.3115C36.0985 37.5299 38.3811 35.0939 39.9795 32.2194C41.5778 29.3448 42.4426 26.1205 42.4972 22.8319C42.5518 19.5433 41.7945 16.2921 40.2924 13.3661C38.7903 10.4401 36.5898 7.92971 33.8858 6.0573C31.1818 4.18488 28.0577 3.00823 24.7903 2.63158L24.4221 5.82545C27.1643 6.14156 29.7862 7.12906 32.0555 8.70048C34.3248 10.2719 36.1716 12.3787 37.4322 14.8344C38.6929 17.29 39.3284 20.0186 39.2826 22.7786C39.2368 25.5385 38.511 28.2445 37.1696 30.657C35.8282 33.0694 33.9125 35.1138 31.5923 36.609C29.272 38.1043 26.6188 39.0042 23.8677 39.2292C21.1166 39.4541 18.3525 38.9971 15.8201 37.8986C13.2878 36.8001 11.0655 35.094 9.35005 32.9315L6.8313 34.9296Z"/>
</mask>
<path d="M6.8313 34.9296C8.87535 37.5063 11.5233 39.5391 14.5407 40.848C17.558 42.1569 20.8516 42.7015 24.1297 42.4335C27.4078 42.1655 30.5692 41.0931 33.3338 39.3115C36.0985 37.5299 38.3811 35.0939 39.9795 32.2194C41.5778 29.3448 42.4426 26.1205 42.4972 22.8319C42.5518 19.5433 41.7945 16.2921 40.2924 13.3661C38.7903 10.4401 36.5898 7.92971 33.8858 6.0573C31.1818 4.18488 28.0577 3.00823 24.7903 2.63158L24.4221 5.82545C27.1643 6.14156 29.7862 7.12906 32.0555 8.70048C34.3248 10.2719 36.1716 12.3787 37.4322 14.8344C38.6929 17.29 39.3284 20.0186 39.2826 22.7786C39.2368 25.5385 38.511 28.2445 37.1696 30.657C35.8282 33.0694 33.9125 35.1138 31.5923 36.609C29.272 38.1043 26.6188 39.0042 23.8677 39.2292C21.1166 39.4541 18.3525 38.9971 15.8201 37.8986C13.2878 36.8001 11.0655 35.094 9.35005 32.9315L6.8313 34.9296Z" stroke="#D574FF" stroke-width="6" mask="url(#path-1-inside-1_17_292)"/>
<mask id="path-2-inside-2_17_292" fill="white">
<path d="M20.8234 2.5704C18.3019 2.78251 15.8436 3.47119 13.5789 4.59987L15.013 7.47733C16.9136 6.53009 18.9768 5.95212 21.0929 5.7741L20.8234 2.5704Z"/>
</mask>
<path d="M20.8234 2.5704C18.3019 2.78251 15.8436 3.47119 13.5789 4.59987L15.013 7.47733C16.9136 6.53009 18.9768 5.95212 21.0929 5.7741L20.8234 2.5704Z" stroke="#D574FF" stroke-width="6" stroke-linecap="square" stroke-dasharray="4 4" mask="url(#path-2-inside-2_17_292)"/>
<mask id="path-3-inside-3_17_292" fill="white">
<path d="M10.302 6.65041C8.29673 8.19369 6.60253 10.1035 5.3093 12.2784L8.07272 13.9215C9.15806 12.0962 10.5799 10.4934 12.2628 9.19825L10.302 6.65041Z"/>
</mask>
<path d="M10.302 6.65041C8.29673 8.19369 6.60253 10.1035 5.3093 12.2784L8.07272 13.9215C9.15806 12.0962 10.5799 10.4934 12.2628 9.19825L10.302 6.65041Z" stroke="#D574FF" stroke-width="6" stroke-linecap="square" stroke-dasharray="4 4" mask="url(#path-3-inside-3_17_292)"/>
<mask id="path-4-inside-4_17_292" fill="white">
<path d="M3.99268 14.9184C3.03347 17.26 2.52731 19.7622 2.50105 22.2925L5.7159 22.3258C5.73793 20.2023 6.16273 18.1023 6.96775 16.1372L3.99268 14.9184Z"/>
</mask>
<path d="M3.99268 14.9184C3.03347 17.26 2.52731 19.7622 2.50105 22.2925L5.7159 22.3258C5.73793 20.2023 6.16273 18.1023 6.96775 16.1372L3.99268 14.9184Z" stroke="#D574FF" stroke-width="6" stroke-linecap="square" stroke-dasharray="4 4" mask="url(#path-4-inside-4_17_292)"/>
<mask id="path-5-inside-5_17_292" fill="white">
<path d="M2.59877 24.4855C2.84997 27.0034 3.57669 29.4507 4.74036 31.6976L7.59524 30.2191C6.61863 28.3334 6.00873 26.2794 5.79791 24.1663L2.59877 24.4855Z"/>
</mask>
<path d="M2.59877 24.4855C2.84997 27.0034 3.57669 29.4507 4.74036 31.6976L7.59524 30.2191C6.61863 28.3334 6.00873 26.2794 5.79791 24.1663L2.59877 24.4855Z" stroke="#D574FF" stroke-width="6" stroke-linecap="square" stroke-dasharray="4 4" mask="url(#path-5-inside-5_17_292)"/>
<path d="M14.7157 22.2158C17.3096 24.4855 20.5342 27.5436 21.8902 30.2712C21.9307 30.3525 22.0513 30.3444 22.0803 30.2583C25.3312 20.5921 32.2891 13.1736 43 10" stroke="#9400D4" stroke-width="4" stroke-linecap="round"/>
</svg>
